<svg xmlns="http://www.w3.org/2000/svg" width="20.711" height="20.71" viewBox="72.611 0.001 20.711 20.71"><path d="M77.247 20.711h-4.294V6.884h4.294v13.827Zm-2.15-15.713c-1.372 0-2.486-1.137-2.486-2.51a2.487 2.487 0 1 1 4.973 0c0 1.373-1.114 2.51-2.486 2.51Zm18.22 15.713h-4.284v-6.73c0-1.605-.033-3.662-2.233-3.662-2.232 0-2.574 1.743-2.574 3.546v6.846h-4.29V6.884h4.119V8.77h.06c.573-1.086 1.973-2.233 4.062-2.233 4.346 0 5.145 2.862 5.145 6.579v7.595h-.005Z" fill="#fff" fill-rule="evenodd" data-name="linkedin-in"/></svg>