<svg xmlns="http://www.w3.org/2000/svg" width="25.5" height="20.71" viewBox="146.648 0 25.5 20.71"><path d="M169.527 5.162c.016.226.016.453.016.68 0 6.908-5.258 14.869-14.87 14.869-2.96 0-5.71-.858-8.025-2.346.421.048.826.064 1.262.064 2.444 0 4.693-.825 6.489-2.232a5.235 5.235 0 0 1-4.887-3.625c.324.049.647.081.987.081.47 0 .939-.065 1.376-.178a5.227 5.227 0 0 1-4.191-5.129v-.064a5.263 5.263 0 0 0 2.362.663 5.222 5.222 0 0 1-2.33-4.353c0-.97.26-1.86.712-2.637a14.855 14.855 0 0 0 10.776 5.469 5.9 5.9 0 0 1-.13-1.197c0-2.88 2.33-5.227 5.227-5.227 1.504 0 2.864.632 3.818 1.65A10.29 10.29 0 0 0 171.436.39a5.212 5.212 0 0 1-2.297 2.88 10.477 10.477 0 0 0 3.009-.81 11.234 11.234 0 0 1-2.621 2.703Z" fill="#fff" fill-rule="evenodd" data-name="twitter"/></svg>